<svg preserveAspectRatio="none" width="100%" height="100%" overflow="visible" style="display: block;" viewBox="0 0 16.5268 17.9745" fill="none" xmlns="http://www.w3.org/2000/svg">
<path id="Shape" fill-rule="evenodd" clip-rule="evenodd" d="M8.26341 1.63405C6.89429 1.63405 5.78439 2.73143 5.78439 4.08512C5.78439 5.43881 6.89429 6.53619 8.26341 6.53619C9.63254 6.53619 10.7424 5.43881 10.7424 4.08512C10.7424 2.73143 9.63254 1.63405 8.26341 1.63405ZM4.13171 4.08512C4.13171 1.82897 5.98154 0 8.26341 0C10.5453 0 12.3951 1.82897 12.3951 4.08512C12.3951 6.34127 10.5453 8.17024 8.26341 8.17024C5.98154 8.17024 4.13171 6.34127 4.13171 4.08512ZM3.12228 10.7439C4.7712 10.013 6.76278 9.80429 8.26341 9.80429C9.76405 9.80429 11.7556 10.013 13.4045 10.7439C15.0832 11.4879 16.5268 12.8453 16.5268 15.1149V15.932C16.5268 17.0387 15.6218 17.9745 14.4761 17.9745H2.05072C0.905005 17.9745 0 17.0387 0 15.932V15.1149C0 12.8453 1.44366 11.4879 3.12228 10.7439ZM3.79832 12.2349C2.48146 12.8186 1.65268 13.708 1.65268 15.1149V15.932C1.65268 16.1624 1.84402 16.3405 2.05072 16.3405H14.4761C14.6828 16.3405 14.8741 16.1624 14.8741 15.932V15.1149C14.8741 13.708 14.0454 12.8186 12.7285 12.2349C11.3819 11.6381 9.65497 11.4383 8.26341 11.4383C6.87185 11.4383 5.1449 11.6381 3.79832 12.2349Z" fill="var(--fill-0, white)"/>
</svg>
