<svg preserveAspectRatio="none" width="100%" height="100%" overflow="visible" style="display: block;" viewBox="0 0 14.5121 13.5261" fill="none" xmlns="http://www.w3.org/2000/svg">
<path id="Star 1" d="M6.30917 0.678375C6.6164 -0.226125 7.89567 -0.226125 8.2029 0.678375L9.25534 3.77675C9.3931 4.18233 9.77387 4.45513 10.2022 4.45513H13.5102C14.4896 4.45513 14.8852 5.71733 14.0809 6.27629L11.4822 8.08236C11.116 8.33682 10.9626 8.80295 11.106 9.22514L12.1165 12.1999C12.4268 13.1135 11.3912 13.8933 10.5989 13.3427L7.82673 11.4161C7.48363 11.1776 7.02844 11.1776 6.68534 11.4161L3.91317 13.3427C3.1209 13.8933 2.0853 13.1135 2.39561 12.1999L3.40606 9.22514C3.54947 8.80295 3.39604 8.33682 3.02989 8.08236L0.431185 6.27629C-0.373095 5.71733 0.0224397 4.45513 1.00188 4.45513H4.30987C4.7382 4.45513 5.11897 4.18233 5.25673 3.77675L6.30917 0.678375Z" fill="var(--fill-0, #C8A858)"/>
</svg>
